<svg xmlns="http://www.w3.org/2000/svg" xmlns:xlink="http://www.w3.org/1999/xlink" width="1024" zoomAndPan="magnify" viewBox="0 0 768 767.999994" height="1024" preserveAspectRatio="xMidYMid meet" version="1.0"><defs><clipPath id="807ff19001"><path d="M 268.800781 268.800781 L 499.199219 268.800781 L 499.199219 499.199219 L 268.800781 499.199219 Z M 268.800781 268.800781 " clip-rule="nonzero"/></clipPath><clipPath id="aa6dd37214"><path d="M 384 268.800781 C 320.375 268.800781 268.800781 320.375 268.800781 384 C 268.800781 447.625 320.375 499.199219 384 499.199219 C 447.625 499.199219 499.199219 447.625 499.199219 384 C 499.199219 320.375 447.625 268.800781 384 268.800781 Z M 384 268.800781 " clip-rule="nonzero"/></clipPath><clipPath id="91948bc726"><path d="M 268.800781 268.800781 L 499.050781 268.800781 L 499.050781 499.050781 L 268.800781 499.050781 Z M 268.800781 268.800781 " clip-rule="nonzero"/></clipPath><clipPath id="d5de14ceca"><path d="M 383.996094 268.800781 C 320.375 268.800781 268.800781 320.375 268.800781 383.996094 C 268.800781 447.617188 320.375 499.191406 383.996094 499.191406 C 447.617188 499.191406 499.191406 447.617188 499.191406 383.996094 C 499.191406 320.375 447.617188 268.800781 383.996094 268.800781 Z M 383.996094 268.800781 " clip-rule="nonzero"/></clipPath></defs><g clip-path="url(#807ff19001)"><g clip-path="url(#aa6dd37214)"><path fill="#000000" d="M 268.800781 268.800781 L 499.199219 268.800781 L 499.199219 499.199219 L 268.800781 499.199219 Z M 268.800781 268.800781 " fill-opacity="1" fill-rule="nonzero"/></g></g><g clip-path="url(#91948bc726)"><g clip-path="url(#d5de14ceca)"><path stroke-linecap="butt" transform="matrix(0.75, 0, 0, 0.75, 268.79999, 268.800007)" fill="none" stroke-linejoin="miter" d="M 153.594813 0.00103273 C 68.766684 0.00103273 0.0010554 68.766661 0.0010554 153.59479 C 0.0010554 238.42292 68.766684 307.188548 153.594813 307.188548 C 238.422942 307.188548 307.188571 238.42292 307.188571 153.59479 C 307.188571 68.766661 238.422942 0.00103273 153.594813 0.00103273 Z M 153.594813 0.00103273 " stroke="#00ffff" stroke-width="16" stroke-opacity="1" stroke-miterlimit="4"/></g></g></svg>