<svg xmlns="http://www.w3.org/2000/svg" xmlns:xlink="http://www.w3.org/1999/xlink" width="1024" zoomAndPan="magnify" viewBox="0 0 768 767.999994" height="1024" preserveAspectRatio="xMidYMid meet" version="1.0"><defs><clipPath id="016c8b1fa4"><path d="M 268.800781 285 L 499.285156 285 L 499.285156 483 L 268.800781 483 Z M 268.800781 285 " clip-rule="nonzero"/></clipPath><clipPath id="9190bc0f5c"><path d="M 499.199219 384 L 441.601562 483 L 326.398438 483 L 268.800781 384 L 326.398438 285 L 441.601562 285 Z M 499.199219 384 " clip-rule="nonzero"/></clipPath><clipPath id="f8316d1950"><path d="M 268.800781 285.003906 L 499.050781 285.003906 L 499.050781 482.996094 L 268.800781 482.996094 Z M 268.800781 285.003906 " clip-rule="nonzero"/></clipPath><clipPath id="3a48afd45b"><path d="M 499.191406 384 L 441.59375 482.996094 L 326.398438 482.996094 L 268.800781 384 L 326.398438 285.003906 L 441.59375 285.003906 Z M 499.191406 384 " clip-rule="nonzero"/></clipPath></defs><g clip-path="url(#016c8b1fa4)"><g clip-path="url(#9190bc0f5c)"><path fill="#000000" d="M 268.800781 285 L 499.285156 285 L 499.285156 483 L 268.800781 483 Z M 268.800781 285 " fill-opacity="1" fill-rule="nonzero"/></g></g><g clip-path="url(#f8316d1950)"><g clip-path="url(#3a48afd45b)"><path stroke-linecap="butt" transform="matrix(0.75, 0, 0, 0.75, 268.79999, 285.00405)" fill="none" stroke-linejoin="miter" d="M 307.188571 131.994607 L 230.391692 263.989405 L 76.797934 263.989405 L 0.0010554 131.994607 L 76.797934 -0.000191531 L 230.391692 -0.000191531 Z M 307.188571 131.994607 " stroke="#0500ff" stroke-width="16" stroke-opacity="1" stroke-miterlimit="4"/></g></g></svg>