<svg xmlns="http://www.w3.org/2000/svg" xmlns:xlink="http://www.w3.org/1999/xlink" width="1024" zoomAndPan="magnify" viewBox="0 0 768 767.999994" height="1024" preserveAspectRatio="xMidYMid meet" version="1.0"><defs><clipPath id="96615e3467"><path d="M 268.800781 268.800781 L 499.199219 268.800781 L 499.199219 499.199219 L 268.800781 499.199219 Z M 268.800781 268.800781 " clip-rule="nonzero"/></clipPath><clipPath id="03d034d9d7"><path d="M 384 268.800781 L 499.199219 384 L 384 499.199219 L 268.800781 384 Z M 384 268.800781 " clip-rule="nonzero"/></clipPath><clipPath id="491e4af802"><path d="M 268.800781 268.800781 L 499.050781 268.800781 L 499.050781 499.050781 L 268.800781 499.050781 Z M 268.800781 268.800781 " clip-rule="nonzero"/></clipPath><clipPath id="b2d1bc228c"><path d="M 383.996094 268.800781 L 499.191406 383.996094 L 383.996094 499.191406 L 268.800781 383.996094 Z M 383.996094 268.800781 " clip-rule="nonzero"/></clipPath></defs><g clip-path="url(#96615e3467)"><g clip-path="url(#03d034d9d7)"><path fill="#000000" d="M 268.800781 268.800781 L 499.199219 268.800781 L 499.199219 499.199219 L 268.800781 499.199219 Z M 268.800781 268.800781 " fill-opacity="1" fill-rule="nonzero"/></g></g><g clip-path="url(#491e4af802)"><g clip-path="url(#b2d1bc228c)"><path stroke-linecap="butt" transform="matrix(0.75, 0, 0, 0.75, 268.79999, 268.800007)" fill="none" stroke-linejoin="miter" d="M 153.594813 0.00103273 L 307.188571 153.59479 L 153.594813 307.188548 L 0.0010554 153.59479 Z M 153.594813 0.00103273 " stroke="#fff500" stroke-width="16" stroke-opacity="1" stroke-miterlimit="4"/></g></g></svg>