<svg xmlns="http://www.w3.org/2000/svg" xmlns:xlink="http://www.w3.org/1999/xlink" width="1024" zoomAndPan="magnify" viewBox="0 0 768 767.999994" height="1024" preserveAspectRatio="xMidYMid meet" version="1.0"><defs><clipPath id="ea07986f97"><path d="M 268.800781 283.199219 L 499.539062 283.199219 L 499.539062 484.800781 L 268.800781 484.800781 Z M 268.800781 283.199219 " clip-rule="nonzero"/></clipPath><clipPath id="1b5ce54008"><path d="M 384 283.199219 L 499.199219 484.800781 L 268.800781 484.800781 Z M 384 283.199219 " clip-rule="nonzero"/></clipPath><clipPath id="f1eb6f00ef"><path d="M 268.800781 283.203125 L 499.050781 283.203125 L 499.050781 484.792969 L 268.800781 484.792969 Z M 268.800781 283.203125 " clip-rule="nonzero"/></clipPath><clipPath id="ef25eadc49"><path d="M 383.996094 283.203125 L 499.191406 484.792969 L 268.800781 484.792969 Z M 383.996094 283.203125 " clip-rule="nonzero"/></clipPath></defs><g clip-path="url(#ea07986f97)"><g clip-path="url(#1b5ce54008)"><path fill="#000000" d="M 268.800781 283.199219 L 499.539062 283.199219 L 499.539062 484.800781 L 268.800781 484.800781 Z M 268.800781 283.199219 " fill-opacity="1" fill-rule="nonzero"/></g></g><g clip-path="url(#f1eb6f00ef)"><g clip-path="url(#ef25eadc49)"><path stroke-linecap="butt" transform="matrix(0.75, 0, 0, 0.75, 268.79999, 283.202936)" fill="none" stroke-linejoin="miter" d="M 153.594813 0.000251484 L 307.188571 268.786723 L 0.0010554 268.786723 Z M 153.594813 0.000251484 " stroke="#00ff00" stroke-width="16" stroke-opacity="1" stroke-miterlimit="4"/></g></g></svg>